<svg height="512" viewBox="0 0 64 64" width="512" xmlns="http://www.w3.org/2000/svg"><g id="Filled_outline" data-name="Filled outline"><path d="m3 3h58v58h-58z" fill="#394d5c"/><path d="m3 3h16v8h-16z" fill="#7d8d9c"/><path d="m6 6h2v2h-2z" fill="#e1462b"/><path d="m10 6h2v2h-2z" fill="#f9bb4b"/><path d="m14 6h2v2h-2z" fill="#55b56a"/><path d="m19 3h42v8h-42z" fill="#aabece"/><path d="m53 61h-42v-46h34l8 8z" fill="#f4f4e6"/><path d="m53 23h-8v-8z" fill="#d6d5c5"/><circle cx="32" cy="30" fill="#ffd782" r="11"/><g fill="#394d5c"><path d="m27 25.172h2v5.657h-2z" transform="matrix(.707 -.707 .707 .707 -11.598 28)"/><path d="m25.172 27h5.657v2h-5.657z" transform="matrix(.707 -.707 .707 .707 -11.598 28)"/><path d="m35 25.172h2v5.657h-2z" transform="matrix(.707 -.707 .707 .707 -9.255 33.657)"/><path d="m33.172 27h5.657v2h-5.657z" transform="matrix(.707 -.707 .707 .707 -9.255 33.657)"/><path d="m36.051 36.316c-.03-.086-.864-2.316-4.051-2.316-3.242 0-4.043 2.293-4.051 2.316l-1.9-.632c.051-.151 1.284-3.684 5.951-3.684s5.9 3.533 5.949 3.684z"/><path d="m24 57h-2v-3h-5a1 1 0 0 1 -.759-1.65l6-7a1 1 0 0 1 1.759.65v6h2v2h-2zm-4.826-5h2.826v-3.3z"/><path d="m46 57h-2v-3h-5a1 1 0 0 1 -.759-1.65l6-7a1 1 0 0 1 1.759.65v6h2v2h-2zm-4.826-5h2.826v-3.3z"/><path d="m33 57h-2a3 3 0 0 1 -3-3v-6a3 3 0 0 1 3-3h2a3 3 0 0 1 3 3v6a3 3 0 0 1 -3 3zm-2-10a1 1 0 0 0 -1 1v6a1 1 0 0 0 1 1h2a1 1 0 0 0 1-1v-6a1 1 0 0 0 -1-1z"/></g><path d="m16 30h-2v-11a1 1 0 0 1 1-1h5v2h-4z" fill="#d6d5c5"/><path d="m14 32h2v2h-2z" fill="#d6d5c5"/><path d="m6 6h2v2h-2z"/><path d="m10 6h2v2h-2z"/><path d="m14 6h2v2h-2z"/><path d="m61 2h-58a1 1 0 0 0 -1 1v58a1 1 0 0 0 1 1h58a1 1 0 0 0 1-1v-58a1 1 0 0 0 -1-1zm-1 8h-40v-6h40zm-56-6h14v6h-14zm8 56v-44h32v7a1 1 0 0 0 1 1h7v36zm34-42.586 4.586 4.586h-4.586zm8 42.586v-37a1 1 0 0 0 -.293-.707l-8-8a1 1 0 0 0 -.707-.293h-34a1 1 0 0 0 -1 1v45h-6v-48h56v48z"/><path d="m32 42a12 12 0 1 0 -12-12 12.013 12.013 0 0 0 12 12zm0-22a10 10 0 1 1 -10 10 10.011 10.011 0 0 1 10-10z"/><path d="m26.707 30.707 1.293-1.293 1.293 1.293 1.414-1.414-1.293-1.293 1.293-1.293-1.414-1.414-1.293 1.293-1.293-1.293-1.414 1.414 1.293 1.293-1.293 1.293z"/><path d="m34.707 30.707 1.293-1.293 1.293 1.293 1.414-1.414-1.293-1.293 1.293-1.293-1.414-1.414-1.293 1.293-1.293-1.293-1.414 1.414 1.293 1.293-1.293 1.293z"/><path d="m26.051 35.684 1.9.632c.006-.023.807-2.316 4.049-2.316 3.187 0 4.021 2.23 4.051 2.316l1.9-.632c-.051-.151-1.284-3.684-5.951-3.684s-5.9 3.533-5.949 3.684z"/><path d="m24 46a1 1 0 0 0 -1.759-.65l-6 7a1 1 0 0 0 .759 1.65h5v3h2v-3h2v-2h-2zm-2 6h-2.826l2.826-3.3z"/><path d="m46 46a1 1 0 0 0 -1.759-.65l-6 7a1 1 0 0 0 .759 1.65h5v3h2v-3h2v-2h-2zm-2 6h-2.826l2.826-3.3z"/><path d="m33 45h-2a3 3 0 0 0 -3 3v6a3 3 0 0 0 3 3h2a3 3 0 0 0 3-3v-6a3 3 0 0 0 -3-3zm1 9a1 1 0 0 1 -1 1h-2a1 1 0 0 1 -1-1v-6a1 1 0 0 1 1-1h2a1 1 0 0 1 1 1z"/><path d="m20 18h-5a1 1 0 0 0 -1 1v11h2v-10h4z"/><path d="m14 32h2v2h-2z"/></g></svg>